<?xml version="1.0" standalone="no"?>
<!DOCTYPE svg PUBLIC "-//W3C//DTD SVG 20010904//EN"
 "http://www.w3.org/TR/2001/REC-SVG-20010904/DTD/svg10.dtd">
<svg version="1.0" xmlns="http://www.w3.org/2000/svg"
 width="400.000000pt" height="400.000000pt" viewBox="0 0 400.000000 400.000000"
 preserveAspectRatio="xMidYMid meet">

<g transform="translate(0.000000,400.000000) scale(0.100000,-0.100000)"
fill="#000000" stroke="none">
<path d="M1803 3790 c-346 -44 -682 -185 -937 -393 -332 -271 -557 -653 -638
-1083 -32 -171 -32 -457 0 -628 142 -751 707 -1316 1458 -1458 171 -32 457
-32 628 0 751 142 1316 707 1458 1458 32 171 32 457 0 628 -141 748 -710 1319
-1453 1456 -130 24 -399 34 -516 20z m44 -1285 c82 -162 150 -295 153 -295 3
0 58 106 123 236 130 261 115 245 199 203 21 -11 48 -19 61 -19 35 0 67 35 67
74 0 35 -15 53 -65 79 -29 16 -25 16 93 17 l122 0 0 -85 0 -85 -34 0 c-25 0
-39 -7 -50 -22 -27 -39 -19 -71 34 -138 l50 -63 0 -407 0 -407 -30 -38 c-37
-46 -40 -95 -8 -125 12 -11 25 -20 30 -20 4 0 8 -47 8 -105 l0 -105 -121 0
-122 0 49 26 c69 36 94 62 94 98 0 37 -35 76 -68 76 -14 0 -49 -14 -78 -31
l-54 -30 -1 478 0 478 -147 -292 c-81 -161 -149 -293 -152 -293 -3 0 -71 132
-152 293 l-147 292 0 -478 -1 -479 -47 28 c-124 71 -120 69 -149 59 -16 -6
-35 -22 -43 -37 -26 -46 -7 -76 88 -135 l84 -53 -116 0 -117 0 0 134 c0 106 3
136 15 146 19 16 19 57 0 90 -12 21 -14 124 -15 628 l0 602 150 0 150 0 147
-295z"/>
<path d="M1515 2730 c-104 -71 -129 -118 -87 -171 31 -38 69 -29 163 37 98 70
114 99 82 142 -33 44 -84 41 -158 -8z"/>
</g>
</svg>
